G04 #@! TF.FileFunction,Legend,Top*
%FSLAX46Y46*%
G04 Gerber Fmt 4.6, Leading zero omitted, Abs format (unit mm)*
G04 Created by KiCad (PCBNEW 4.0.6) date 06/24/19 22:23:21*
%MOMM*%
%LPD*%
G01*
G04 APERTURE LIST*
%ADD10C,0.100000*%
%ADD11C,0.120000*%
%ADD12C,0.150000*%
G04 APERTURE END LIST*
D10*
D11*
X110490000Y-45890000D02*
X140490000Y-45890000D01*
X140490000Y-35390000D02*
X110490000Y-35390000D01*
X140490000Y-45890000D02*
G75*
G03X140490000Y-35390000I0J5250000D01*
G01*
X110490000Y-35390000D02*
G75*
G03X110490000Y-45890000I0J-5250000D01*
G01*
X93980000Y-35390000D02*
X63980000Y-35390000D01*
X63980000Y-45890000D02*
X93980000Y-45890000D01*
X63980000Y-35390000D02*
G75*
G03X63980000Y-45890000I0J-5250000D01*
G01*
X93980000Y-45890000D02*
G75*
G03X93980000Y-35390000I0J5250000D01*
G01*
X60610000Y-71120000D02*
G75*
G03X60610000Y-71120000I-4090000J0D01*
G01*
X56520000Y-75170000D02*
X56520000Y-67070000D01*
X56480000Y-75170000D02*
X56480000Y-67070000D01*
X56440000Y-75170000D02*
X56440000Y-67070000D01*
X56400000Y-75169000D02*
X56400000Y-67071000D01*
X56360000Y-75167000D02*
X56360000Y-67073000D01*
X56320000Y-75166000D02*
X56320000Y-67074000D01*
X56280000Y-75163000D02*
X56280000Y-67077000D01*
X56240000Y-75161000D02*
X56240000Y-67079000D01*
X56200000Y-75158000D02*
X56200000Y-67082000D01*
X56160000Y-75155000D02*
X56160000Y-67085000D01*
X56120000Y-75151000D02*
X56120000Y-67089000D01*
X56080000Y-75147000D02*
X56080000Y-67093000D01*
X56040000Y-75142000D02*
X56040000Y-67098000D01*
X56000000Y-75137000D02*
X56000000Y-67103000D01*
X55960000Y-75132000D02*
X55960000Y-67108000D01*
X55920000Y-75126000D02*
X55920000Y-67114000D01*
X55880000Y-75120000D02*
X55880000Y-67120000D01*
X55840000Y-75114000D02*
X55840000Y-67126000D01*
X55799000Y-75107000D02*
X55799000Y-67133000D01*
X55759000Y-75099000D02*
X55759000Y-67141000D01*
X55719000Y-75091000D02*
X55719000Y-67149000D01*
X55679000Y-75083000D02*
X55679000Y-67157000D01*
X55639000Y-75075000D02*
X55639000Y-67165000D01*
X55599000Y-75066000D02*
X55599000Y-72100000D01*
X55599000Y-70140000D02*
X55599000Y-67174000D01*
X55559000Y-75056000D02*
X55559000Y-72100000D01*
X55559000Y-70140000D02*
X55559000Y-67184000D01*
X55519000Y-75046000D02*
X55519000Y-72100000D01*
X55519000Y-70140000D02*
X55519000Y-67194000D01*
X55479000Y-75036000D02*
X55479000Y-72100000D01*
X55479000Y-70140000D02*
X55479000Y-67204000D01*
X55439000Y-75025000D02*
X55439000Y-72100000D01*
X55439000Y-70140000D02*
X55439000Y-67215000D01*
X55399000Y-75014000D02*
X55399000Y-72100000D01*
X55399000Y-70140000D02*
X55399000Y-67226000D01*
X55359000Y-75003000D02*
X55359000Y-72100000D01*
X55359000Y-70140000D02*
X55359000Y-67237000D01*
X55319000Y-74990000D02*
X55319000Y-72100000D01*
X55319000Y-70140000D02*
X55319000Y-67250000D01*
X55279000Y-74978000D02*
X55279000Y-72100000D01*
X55279000Y-70140000D02*
X55279000Y-67262000D01*
X55239000Y-74965000D02*
X55239000Y-72100000D01*
X55239000Y-70140000D02*
X55239000Y-67275000D01*
X55199000Y-74952000D02*
X55199000Y-72100000D01*
X55199000Y-70140000D02*
X55199000Y-67288000D01*
X55159000Y-74938000D02*
X55159000Y-72100000D01*
X55159000Y-70140000D02*
X55159000Y-67302000D01*
X55119000Y-74923000D02*
X55119000Y-72100000D01*
X55119000Y-70140000D02*
X55119000Y-67317000D01*
X55079000Y-74909000D02*
X55079000Y-72100000D01*
X55079000Y-70140000D02*
X55079000Y-67331000D01*
X55039000Y-74893000D02*
X55039000Y-72100000D01*
X55039000Y-70140000D02*
X55039000Y-67347000D01*
X54999000Y-74878000D02*
X54999000Y-72100000D01*
X54999000Y-70140000D02*
X54999000Y-67362000D01*
X54959000Y-74861000D02*
X54959000Y-72100000D01*
X54959000Y-70140000D02*
X54959000Y-67379000D01*
X54919000Y-74845000D02*
X54919000Y-72100000D01*
X54919000Y-70140000D02*
X54919000Y-67395000D01*
X54879000Y-74827000D02*
X54879000Y-72100000D01*
X54879000Y-70140000D02*
X54879000Y-67413000D01*
X54839000Y-74810000D02*
X54839000Y-72100000D01*
X54839000Y-70140000D02*
X54839000Y-67430000D01*
X54799000Y-74791000D02*
X54799000Y-72100000D01*
X54799000Y-70140000D02*
X54799000Y-67449000D01*
X54759000Y-74772000D02*
X54759000Y-72100000D01*
X54759000Y-70140000D02*
X54759000Y-67468000D01*
X54719000Y-74753000D02*
X54719000Y-72100000D01*
X54719000Y-70140000D02*
X54719000Y-67487000D01*
X54679000Y-74733000D02*
X54679000Y-72100000D01*
X54679000Y-70140000D02*
X54679000Y-67507000D01*
X54639000Y-74713000D02*
X54639000Y-72100000D01*
X54639000Y-70140000D02*
X54639000Y-67527000D01*
X54599000Y-74692000D02*
X54599000Y-72100000D01*
X54599000Y-70140000D02*
X54599000Y-67548000D01*
X54559000Y-74670000D02*
X54559000Y-72100000D01*
X54559000Y-70140000D02*
X54559000Y-67570000D01*
X54519000Y-74648000D02*
X54519000Y-72100000D01*
X54519000Y-70140000D02*
X54519000Y-67592000D01*
X54479000Y-74625000D02*
X54479000Y-72100000D01*
X54479000Y-70140000D02*
X54479000Y-67615000D01*
X54439000Y-74602000D02*
X54439000Y-72100000D01*
X54439000Y-70140000D02*
X54439000Y-67638000D01*
X54399000Y-74578000D02*
X54399000Y-72100000D01*
X54399000Y-70140000D02*
X54399000Y-67662000D01*
X54359000Y-74554000D02*
X54359000Y-72100000D01*
X54359000Y-70140000D02*
X54359000Y-67686000D01*
X54319000Y-74528000D02*
X54319000Y-72100000D01*
X54319000Y-70140000D02*
X54319000Y-67712000D01*
X54279000Y-74503000D02*
X54279000Y-72100000D01*
X54279000Y-70140000D02*
X54279000Y-67737000D01*
X54239000Y-74476000D02*
X54239000Y-72100000D01*
X54239000Y-70140000D02*
X54239000Y-67764000D01*
X54199000Y-74449000D02*
X54199000Y-72100000D01*
X54199000Y-70140000D02*
X54199000Y-67791000D01*
X54159000Y-74421000D02*
X54159000Y-72100000D01*
X54159000Y-70140000D02*
X54159000Y-67819000D01*
X54119000Y-74392000D02*
X54119000Y-72100000D01*
X54119000Y-70140000D02*
X54119000Y-67848000D01*
X54079000Y-74363000D02*
X54079000Y-72100000D01*
X54079000Y-70140000D02*
X54079000Y-67877000D01*
X54039000Y-74333000D02*
X54039000Y-72100000D01*
X54039000Y-70140000D02*
X54039000Y-67907000D01*
X53999000Y-74302000D02*
X53999000Y-72100000D01*
X53999000Y-70140000D02*
X53999000Y-67938000D01*
X53959000Y-74270000D02*
X53959000Y-72100000D01*
X53959000Y-70140000D02*
X53959000Y-67970000D01*
X53919000Y-74238000D02*
X53919000Y-72100000D01*
X53919000Y-70140000D02*
X53919000Y-68002000D01*
X53879000Y-74204000D02*
X53879000Y-72100000D01*
X53879000Y-70140000D02*
X53879000Y-68036000D01*
X53839000Y-74170000D02*
X53839000Y-72100000D01*
X53839000Y-70140000D02*
X53839000Y-68070000D01*
X53799000Y-74135000D02*
X53799000Y-72100000D01*
X53799000Y-70140000D02*
X53799000Y-68105000D01*
X53759000Y-74099000D02*
X53759000Y-72100000D01*
X53759000Y-70140000D02*
X53759000Y-68141000D01*
X53719000Y-74062000D02*
X53719000Y-72100000D01*
X53719000Y-70140000D02*
X53719000Y-68178000D01*
X53679000Y-74024000D02*
X53679000Y-72100000D01*
X53679000Y-70140000D02*
X53679000Y-68216000D01*
X53639000Y-73985000D02*
X53639000Y-68255000D01*
X53599000Y-73944000D02*
X53599000Y-68296000D01*
X53559000Y-73903000D02*
X53559000Y-68337000D01*
X53519000Y-73860000D02*
X53519000Y-68380000D01*
X53479000Y-73817000D02*
X53479000Y-68423000D01*
X53439000Y-73772000D02*
X53439000Y-68468000D01*
X53399000Y-73725000D02*
X53399000Y-68515000D01*
X53359000Y-73677000D02*
X53359000Y-68563000D01*
X53319000Y-73628000D02*
X53319000Y-68612000D01*
X53279000Y-73577000D02*
X53279000Y-68663000D01*
X53239000Y-73524000D02*
X53239000Y-68716000D01*
X53199000Y-73469000D02*
X53199000Y-68771000D01*
X53159000Y-73413000D02*
X53159000Y-68827000D01*
X53119000Y-73354000D02*
X53119000Y-68886000D01*
X53079000Y-73293000D02*
X53079000Y-68947000D01*
X53039000Y-73229000D02*
X53039000Y-69011000D01*
X52999000Y-73163000D02*
X52999000Y-69077000D01*
X52959000Y-73094000D02*
X52959000Y-69146000D01*
X52919000Y-73022000D02*
X52919000Y-69218000D01*
X52879000Y-72946000D02*
X52879000Y-69294000D01*
X52839000Y-72865000D02*
X52839000Y-69375000D01*
X52799000Y-72780000D02*
X52799000Y-69460000D01*
X52759000Y-72690000D02*
X52759000Y-69550000D01*
X52719000Y-72593000D02*
X52719000Y-69647000D01*
X52679000Y-72489000D02*
X52679000Y-69751000D01*
X52639000Y-72374000D02*
X52639000Y-69866000D01*
X52599000Y-72247000D02*
X52599000Y-69993000D01*
X52559000Y-72103000D02*
X52559000Y-70137000D01*
X52519000Y-71934000D02*
X52519000Y-70306000D01*
X52479000Y-71718000D02*
X52479000Y-70522000D01*
X52439000Y-71366000D02*
X52439000Y-70874000D01*
X60620000Y-71120000D02*
X59420000Y-71120000D01*
X60020000Y-71770000D02*
X60020000Y-70470000D01*
X101250000Y-69850000D02*
G75*
G03X101250000Y-69850000I-4090000J0D01*
G01*
X97160000Y-73900000D02*
X97160000Y-65800000D01*
X97120000Y-73900000D02*
X97120000Y-65800000D01*
X97080000Y-73900000D02*
X97080000Y-65800000D01*
X97040000Y-73899000D02*
X97040000Y-65801000D01*
X97000000Y-73897000D02*
X97000000Y-65803000D01*
X96960000Y-73896000D02*
X96960000Y-65804000D01*
X96920000Y-73893000D02*
X96920000Y-65807000D01*
X96880000Y-73891000D02*
X96880000Y-65809000D01*
X96840000Y-73888000D02*
X96840000Y-65812000D01*
X96800000Y-73885000D02*
X96800000Y-65815000D01*
X96760000Y-73881000D02*
X96760000Y-65819000D01*
X96720000Y-73877000D02*
X96720000Y-65823000D01*
X96680000Y-73872000D02*
X96680000Y-65828000D01*
X96640000Y-73867000D02*
X96640000Y-65833000D01*
X96600000Y-73862000D02*
X96600000Y-65838000D01*
X96560000Y-73856000D02*
X96560000Y-65844000D01*
X96520000Y-73850000D02*
X96520000Y-65850000D01*
X96480000Y-73844000D02*
X96480000Y-65856000D01*
X96439000Y-73837000D02*
X96439000Y-65863000D01*
X96399000Y-73829000D02*
X96399000Y-65871000D01*
X96359000Y-73821000D02*
X96359000Y-65879000D01*
X96319000Y-73813000D02*
X96319000Y-65887000D01*
X96279000Y-73805000D02*
X96279000Y-65895000D01*
X96239000Y-73796000D02*
X96239000Y-70830000D01*
X96239000Y-68870000D02*
X96239000Y-65904000D01*
X96199000Y-73786000D02*
X96199000Y-70830000D01*
X96199000Y-68870000D02*
X96199000Y-65914000D01*
X96159000Y-73776000D02*
X96159000Y-70830000D01*
X96159000Y-68870000D02*
X96159000Y-65924000D01*
X96119000Y-73766000D02*
X96119000Y-70830000D01*
X96119000Y-68870000D02*
X96119000Y-65934000D01*
X96079000Y-73755000D02*
X96079000Y-70830000D01*
X96079000Y-68870000D02*
X96079000Y-65945000D01*
X96039000Y-73744000D02*
X96039000Y-70830000D01*
X96039000Y-68870000D02*
X96039000Y-65956000D01*
X95999000Y-73733000D02*
X95999000Y-70830000D01*
X95999000Y-68870000D02*
X95999000Y-65967000D01*
X95959000Y-73720000D02*
X95959000Y-70830000D01*
X95959000Y-68870000D02*
X95959000Y-65980000D01*
X95919000Y-73708000D02*
X95919000Y-70830000D01*
X95919000Y-68870000D02*
X95919000Y-65992000D01*
X95879000Y-73695000D02*
X95879000Y-70830000D01*
X95879000Y-68870000D02*
X95879000Y-66005000D01*
X95839000Y-73682000D02*
X95839000Y-70830000D01*
X95839000Y-68870000D02*
X95839000Y-66018000D01*
X95799000Y-73668000D02*
X95799000Y-70830000D01*
X95799000Y-68870000D02*
X95799000Y-66032000D01*
X95759000Y-73653000D02*
X95759000Y-70830000D01*
X95759000Y-68870000D02*
X95759000Y-66047000D01*
X95719000Y-73639000D02*
X95719000Y-70830000D01*
X95719000Y-68870000D02*
X95719000Y-66061000D01*
X95679000Y-73623000D02*
X95679000Y-70830000D01*
X95679000Y-68870000D02*
X95679000Y-66077000D01*
X95639000Y-73608000D02*
X95639000Y-70830000D01*
X95639000Y-68870000D02*
X95639000Y-66092000D01*
X95599000Y-73591000D02*
X95599000Y-70830000D01*
X95599000Y-68870000D02*
X95599000Y-66109000D01*
X95559000Y-73575000D02*
X95559000Y-70830000D01*
X95559000Y-68870000D02*
X95559000Y-66125000D01*
X95519000Y-73557000D02*
X95519000Y-70830000D01*
X95519000Y-68870000D02*
X95519000Y-66143000D01*
X95479000Y-73540000D02*
X95479000Y-70830000D01*
X95479000Y-68870000D02*
X95479000Y-66160000D01*
X95439000Y-73521000D02*
X95439000Y-70830000D01*
X95439000Y-68870000D02*
X95439000Y-66179000D01*
X95399000Y-73502000D02*
X95399000Y-70830000D01*
X95399000Y-68870000D02*
X95399000Y-66198000D01*
X95359000Y-73483000D02*
X95359000Y-70830000D01*
X95359000Y-68870000D02*
X95359000Y-66217000D01*
X95319000Y-73463000D02*
X95319000Y-70830000D01*
X95319000Y-68870000D02*
X95319000Y-66237000D01*
X95279000Y-73443000D02*
X95279000Y-70830000D01*
X95279000Y-68870000D02*
X95279000Y-66257000D01*
X95239000Y-73422000D02*
X95239000Y-70830000D01*
X95239000Y-68870000D02*
X95239000Y-66278000D01*
X95199000Y-73400000D02*
X95199000Y-70830000D01*
X95199000Y-68870000D02*
X95199000Y-66300000D01*
X95159000Y-73378000D02*
X95159000Y-70830000D01*
X95159000Y-68870000D02*
X95159000Y-66322000D01*
X95119000Y-73355000D02*
X95119000Y-70830000D01*
X95119000Y-68870000D02*
X95119000Y-66345000D01*
X95079000Y-73332000D02*
X95079000Y-70830000D01*
X95079000Y-68870000D02*
X95079000Y-66368000D01*
X95039000Y-73308000D02*
X95039000Y-70830000D01*
X95039000Y-68870000D02*
X95039000Y-66392000D01*
X94999000Y-73284000D02*
X94999000Y-70830000D01*
X94999000Y-68870000D02*
X94999000Y-66416000D01*
X94959000Y-73258000D02*
X94959000Y-70830000D01*
X94959000Y-68870000D02*
X94959000Y-66442000D01*
X94919000Y-73233000D02*
X94919000Y-70830000D01*
X94919000Y-68870000D02*
X94919000Y-66467000D01*
X94879000Y-73206000D02*
X94879000Y-70830000D01*
X94879000Y-68870000D02*
X94879000Y-66494000D01*
X94839000Y-73179000D02*
X94839000Y-70830000D01*
X94839000Y-68870000D02*
X94839000Y-66521000D01*
X94799000Y-73151000D02*
X94799000Y-70830000D01*
X94799000Y-68870000D02*
X94799000Y-66549000D01*
X94759000Y-73122000D02*
X94759000Y-70830000D01*
X94759000Y-68870000D02*
X94759000Y-66578000D01*
X94719000Y-73093000D02*
X94719000Y-70830000D01*
X94719000Y-68870000D02*
X94719000Y-66607000D01*
X94679000Y-73063000D02*
X94679000Y-70830000D01*
X94679000Y-68870000D02*
X94679000Y-66637000D01*
X94639000Y-73032000D02*
X94639000Y-70830000D01*
X94639000Y-68870000D02*
X94639000Y-66668000D01*
X94599000Y-73000000D02*
X94599000Y-70830000D01*
X94599000Y-68870000D02*
X94599000Y-66700000D01*
X94559000Y-72968000D02*
X94559000Y-70830000D01*
X94559000Y-68870000D02*
X94559000Y-66732000D01*
X94519000Y-72934000D02*
X94519000Y-70830000D01*
X94519000Y-68870000D02*
X94519000Y-66766000D01*
X94479000Y-72900000D02*
X94479000Y-70830000D01*
X94479000Y-68870000D02*
X94479000Y-66800000D01*
X94439000Y-72865000D02*
X94439000Y-70830000D01*
X94439000Y-68870000D02*
X94439000Y-66835000D01*
X94399000Y-72829000D02*
X94399000Y-70830000D01*
X94399000Y-68870000D02*
X94399000Y-66871000D01*
X94359000Y-72792000D02*
X94359000Y-70830000D01*
X94359000Y-68870000D02*
X94359000Y-66908000D01*
X94319000Y-72754000D02*
X94319000Y-70830000D01*
X94319000Y-68870000D02*
X94319000Y-66946000D01*
X94279000Y-72715000D02*
X94279000Y-66985000D01*
X94239000Y-72674000D02*
X94239000Y-67026000D01*
X94199000Y-72633000D02*
X94199000Y-67067000D01*
X94159000Y-72590000D02*
X94159000Y-67110000D01*
X94119000Y-72547000D02*
X94119000Y-67153000D01*
X94079000Y-72502000D02*
X94079000Y-67198000D01*
X94039000Y-72455000D02*
X94039000Y-67245000D01*
X93999000Y-72407000D02*
X93999000Y-67293000D01*
X93959000Y-72358000D02*
X93959000Y-67342000D01*
X93919000Y-72307000D02*
X93919000Y-67393000D01*
X93879000Y-72254000D02*
X93879000Y-67446000D01*
X93839000Y-72199000D02*
X93839000Y-67501000D01*
X93799000Y-72143000D02*
X93799000Y-67557000D01*
X93759000Y-72084000D02*
X93759000Y-67616000D01*
X93719000Y-72023000D02*
X93719000Y-67677000D01*
X93679000Y-71959000D02*
X93679000Y-67741000D01*
X93639000Y-71893000D02*
X93639000Y-67807000D01*
X93599000Y-71824000D02*
X93599000Y-67876000D01*
X93559000Y-71752000D02*
X93559000Y-67948000D01*
X93519000Y-71676000D02*
X93519000Y-68024000D01*
X93479000Y-71595000D02*
X93479000Y-68105000D01*
X93439000Y-71510000D02*
X93439000Y-68190000D01*
X93399000Y-71420000D02*
X93399000Y-68280000D01*
X93359000Y-71323000D02*
X93359000Y-68377000D01*
X93319000Y-71219000D02*
X93319000Y-68481000D01*
X93279000Y-71104000D02*
X93279000Y-68596000D01*
X93239000Y-70977000D02*
X93239000Y-68723000D01*
X93199000Y-70833000D02*
X93199000Y-68867000D01*
X93159000Y-70664000D02*
X93159000Y-69036000D01*
X93119000Y-70448000D02*
X93119000Y-69252000D01*
X93079000Y-70096000D02*
X93079000Y-69604000D01*
X101260000Y-69850000D02*
X100060000Y-69850000D01*
X100660000Y-70500000D02*
X100660000Y-69200000D01*
X102520000Y-109220000D02*
G75*
G03X102520000Y-109220000I-4090000J0D01*
G01*
X98430000Y-113270000D02*
X98430000Y-105170000D01*
X98390000Y-113270000D02*
X98390000Y-105170000D01*
X98350000Y-113270000D02*
X98350000Y-105170000D01*
X98310000Y-113269000D02*
X98310000Y-105171000D01*
X98270000Y-113267000D02*
X98270000Y-105173000D01*
X98230000Y-113266000D02*
X98230000Y-105174000D01*
X98190000Y-113263000D02*
X98190000Y-105177000D01*
X98150000Y-113261000D02*
X98150000Y-105179000D01*
X98110000Y-113258000D02*
X98110000Y-105182000D01*
X98070000Y-113255000D02*
X98070000Y-105185000D01*
X98030000Y-113251000D02*
X98030000Y-105189000D01*
X97990000Y-113247000D02*
X97990000Y-105193000D01*
X97950000Y-113242000D02*
X97950000Y-105198000D01*
X97910000Y-113237000D02*
X97910000Y-105203000D01*
X97870000Y-113232000D02*
X97870000Y-105208000D01*
X97830000Y-113226000D02*
X97830000Y-105214000D01*
X97790000Y-113220000D02*
X97790000Y-105220000D01*
X97750000Y-113214000D02*
X97750000Y-105226000D01*
X97709000Y-113207000D02*
X97709000Y-105233000D01*
X97669000Y-113199000D02*
X97669000Y-105241000D01*
X97629000Y-113191000D02*
X97629000Y-105249000D01*
X97589000Y-113183000D02*
X97589000Y-105257000D01*
X97549000Y-113175000D02*
X97549000Y-105265000D01*
X97509000Y-113166000D02*
X97509000Y-110200000D01*
X97509000Y-108240000D02*
X97509000Y-105274000D01*
X97469000Y-113156000D02*
X97469000Y-110200000D01*
X97469000Y-108240000D02*
X97469000Y-105284000D01*
X97429000Y-113146000D02*
X97429000Y-110200000D01*
X97429000Y-108240000D02*
X97429000Y-105294000D01*
X97389000Y-113136000D02*
X97389000Y-110200000D01*
X97389000Y-108240000D02*
X97389000Y-105304000D01*
X97349000Y-113125000D02*
X97349000Y-110200000D01*
X97349000Y-108240000D02*
X97349000Y-105315000D01*
X97309000Y-113114000D02*
X97309000Y-110200000D01*
X97309000Y-108240000D02*
X97309000Y-105326000D01*
X97269000Y-113103000D02*
X97269000Y-110200000D01*
X97269000Y-108240000D02*
X97269000Y-105337000D01*
X97229000Y-113090000D02*
X97229000Y-110200000D01*
X97229000Y-108240000D02*
X97229000Y-105350000D01*
X97189000Y-113078000D02*
X97189000Y-110200000D01*
X97189000Y-108240000D02*
X97189000Y-105362000D01*
X97149000Y-113065000D02*
X97149000Y-110200000D01*
X97149000Y-108240000D02*
X97149000Y-105375000D01*
X97109000Y-113052000D02*
X97109000Y-110200000D01*
X97109000Y-108240000D02*
X97109000Y-105388000D01*
X97069000Y-113038000D02*
X97069000Y-110200000D01*
X97069000Y-108240000D02*
X97069000Y-105402000D01*
X97029000Y-113023000D02*
X97029000Y-110200000D01*
X97029000Y-108240000D02*
X97029000Y-105417000D01*
X96989000Y-113009000D02*
X96989000Y-110200000D01*
X96989000Y-108240000D02*
X96989000Y-105431000D01*
X96949000Y-112993000D02*
X96949000Y-110200000D01*
X96949000Y-108240000D02*
X96949000Y-105447000D01*
X96909000Y-112978000D02*
X96909000Y-110200000D01*
X96909000Y-108240000D02*
X96909000Y-105462000D01*
X96869000Y-112961000D02*
X96869000Y-110200000D01*
X96869000Y-108240000D02*
X96869000Y-105479000D01*
X96829000Y-112945000D02*
X96829000Y-110200000D01*
X96829000Y-108240000D02*
X96829000Y-105495000D01*
X96789000Y-112927000D02*
X96789000Y-110200000D01*
X96789000Y-108240000D02*
X96789000Y-105513000D01*
X96749000Y-112910000D02*
X96749000Y-110200000D01*
X96749000Y-108240000D02*
X96749000Y-105530000D01*
X96709000Y-112891000D02*
X96709000Y-110200000D01*
X96709000Y-108240000D02*
X96709000Y-105549000D01*
X96669000Y-112872000D02*
X96669000Y-110200000D01*
X96669000Y-108240000D02*
X96669000Y-105568000D01*
X96629000Y-112853000D02*
X96629000Y-110200000D01*
X96629000Y-108240000D02*
X96629000Y-105587000D01*
X96589000Y-112833000D02*
X96589000Y-110200000D01*
X96589000Y-108240000D02*
X96589000Y-105607000D01*
X96549000Y-112813000D02*
X96549000Y-110200000D01*
X96549000Y-108240000D02*
X96549000Y-105627000D01*
X96509000Y-112792000D02*
X96509000Y-110200000D01*
X96509000Y-108240000D02*
X96509000Y-105648000D01*
X96469000Y-112770000D02*
X96469000Y-110200000D01*
X96469000Y-108240000D02*
X96469000Y-105670000D01*
X96429000Y-112748000D02*
X96429000Y-110200000D01*
X96429000Y-108240000D02*
X96429000Y-105692000D01*
X96389000Y-112725000D02*
X96389000Y-110200000D01*
X96389000Y-108240000D02*
X96389000Y-105715000D01*
X96349000Y-112702000D02*
X96349000Y-110200000D01*
X96349000Y-108240000D02*
X96349000Y-105738000D01*
X96309000Y-112678000D02*
X96309000Y-110200000D01*
X96309000Y-108240000D02*
X96309000Y-105762000D01*
X96269000Y-112654000D02*
X96269000Y-110200000D01*
X96269000Y-108240000D02*
X96269000Y-105786000D01*
X96229000Y-112628000D02*
X96229000Y-110200000D01*
X96229000Y-108240000D02*
X96229000Y-105812000D01*
X96189000Y-112603000D02*
X96189000Y-110200000D01*
X96189000Y-108240000D02*
X96189000Y-105837000D01*
X96149000Y-112576000D02*
X96149000Y-110200000D01*
X96149000Y-108240000D02*
X96149000Y-105864000D01*
X96109000Y-112549000D02*
X96109000Y-110200000D01*
X96109000Y-108240000D02*
X96109000Y-105891000D01*
X96069000Y-112521000D02*
X96069000Y-110200000D01*
X96069000Y-108240000D02*
X96069000Y-105919000D01*
X96029000Y-112492000D02*
X96029000Y-110200000D01*
X96029000Y-108240000D02*
X96029000Y-105948000D01*
X95989000Y-112463000D02*
X95989000Y-110200000D01*
X95989000Y-108240000D02*
X95989000Y-105977000D01*
X95949000Y-112433000D02*
X95949000Y-110200000D01*
X95949000Y-108240000D02*
X95949000Y-106007000D01*
X95909000Y-112402000D02*
X95909000Y-110200000D01*
X95909000Y-108240000D02*
X95909000Y-106038000D01*
X95869000Y-112370000D02*
X95869000Y-110200000D01*
X95869000Y-108240000D02*
X95869000Y-106070000D01*
X95829000Y-112338000D02*
X95829000Y-110200000D01*
X95829000Y-108240000D02*
X95829000Y-106102000D01*
X95789000Y-112304000D02*
X95789000Y-110200000D01*
X95789000Y-108240000D02*
X95789000Y-106136000D01*
X95749000Y-112270000D02*
X95749000Y-110200000D01*
X95749000Y-108240000D02*
X95749000Y-106170000D01*
X95709000Y-112235000D02*
X95709000Y-110200000D01*
X95709000Y-108240000D02*
X95709000Y-106205000D01*
X95669000Y-112199000D02*
X95669000Y-110200000D01*
X95669000Y-108240000D02*
X95669000Y-106241000D01*
X95629000Y-112162000D02*
X95629000Y-110200000D01*
X95629000Y-108240000D02*
X95629000Y-106278000D01*
X95589000Y-112124000D02*
X95589000Y-110200000D01*
X95589000Y-108240000D02*
X95589000Y-106316000D01*
X95549000Y-112085000D02*
X95549000Y-106355000D01*
X95509000Y-112044000D02*
X95509000Y-106396000D01*
X95469000Y-112003000D02*
X95469000Y-106437000D01*
X95429000Y-111960000D02*
X95429000Y-106480000D01*
X95389000Y-111917000D02*
X95389000Y-106523000D01*
X95349000Y-111872000D02*
X95349000Y-106568000D01*
X95309000Y-111825000D02*
X95309000Y-106615000D01*
X95269000Y-111777000D02*
X95269000Y-106663000D01*
X95229000Y-111728000D02*
X95229000Y-106712000D01*
X95189000Y-111677000D02*
X95189000Y-106763000D01*
X95149000Y-111624000D02*
X95149000Y-106816000D01*
X95109000Y-111569000D02*
X95109000Y-106871000D01*
X95069000Y-111513000D02*
X95069000Y-106927000D01*
X95029000Y-111454000D02*
X95029000Y-106986000D01*
X94989000Y-111393000D02*
X94989000Y-107047000D01*
X94949000Y-111329000D02*
X94949000Y-107111000D01*
X94909000Y-111263000D02*
X94909000Y-107177000D01*
X94869000Y-111194000D02*
X94869000Y-107246000D01*
X94829000Y-111122000D02*
X94829000Y-107318000D01*
X94789000Y-111046000D02*
X94789000Y-107394000D01*
X94749000Y-110965000D02*
X94749000Y-107475000D01*
X94709000Y-110880000D02*
X94709000Y-107560000D01*
X94669000Y-110790000D02*
X94669000Y-107650000D01*
X94629000Y-110693000D02*
X94629000Y-107747000D01*
X94589000Y-110589000D02*
X94589000Y-107851000D01*
X94549000Y-110474000D02*
X94549000Y-107966000D01*
X94509000Y-110347000D02*
X94509000Y-108093000D01*
X94469000Y-110203000D02*
X94469000Y-108237000D01*
X94429000Y-110034000D02*
X94429000Y-108406000D01*
X94389000Y-109818000D02*
X94389000Y-108622000D01*
X94349000Y-109466000D02*
X94349000Y-108974000D01*
X102530000Y-109220000D02*
X101330000Y-109220000D01*
X101930000Y-109870000D02*
X101930000Y-108570000D01*
X60960000Y-83399365D02*
X60960000Y-81410000D01*
X60071000Y-83142667D02*
X61849000Y-83142667D01*
X60960000Y-83142667D02*
X60071000Y-81957333D01*
X60071000Y-81957333D02*
X61849000Y-81957333D01*
X61849000Y-81957333D02*
X60960000Y-83142667D01*
X62650635Y-80010000D02*
G75*
G03X62650635Y-80010000I-1690635J0D01*
G01*
X104140000Y-77049365D02*
X104140000Y-75060000D01*
X103251000Y-76792667D02*
X105029000Y-76792667D01*
X104140000Y-76792667D02*
X103251000Y-75607333D01*
X103251000Y-75607333D02*
X105029000Y-75607333D01*
X105029000Y-75607333D02*
X104140000Y-76792667D01*
X105830635Y-73660000D02*
G75*
G03X105830635Y-73660000I-1690635J0D01*
G01*
X82550000Y-127170000D02*
X112550000Y-127170000D01*
X112550000Y-116670000D02*
X82550000Y-116670000D01*
X112550000Y-127170000D02*
G75*
G03X112550000Y-116670000I0J5250000D01*
G01*
X82550000Y-116670000D02*
G75*
G03X82550000Y-127170000I0J-5250000D01*
G01*
X95250000Y-51900000D02*
X65250000Y-51900000D01*
X65250000Y-62400000D02*
X95250000Y-62400000D01*
X65250000Y-51900000D02*
G75*
G03X65250000Y-62400000I0J-5250000D01*
G01*
X95250000Y-62400000D02*
G75*
G03X95250000Y-51900000I0J5250000D01*
G01*
X78140000Y-97500000D02*
X78140000Y-97830000D01*
X78140000Y-97830000D02*
X71720000Y-97830000D01*
X71720000Y-97830000D02*
X71720000Y-97500000D01*
X78140000Y-95540000D02*
X78140000Y-95210000D01*
X78140000Y-95210000D02*
X71720000Y-95210000D01*
X71720000Y-95210000D02*
X71720000Y-95540000D01*
X77760000Y-85760000D02*
X77430000Y-85760000D01*
X77430000Y-85760000D02*
X77430000Y-79340000D01*
X77430000Y-79340000D02*
X77760000Y-79340000D01*
X79720000Y-85760000D02*
X80050000Y-85760000D01*
X80050000Y-85760000D02*
X80050000Y-79340000D01*
X80050000Y-79340000D02*
X79720000Y-79340000D01*
X102270000Y-91150000D02*
X102270000Y-91480000D01*
X102270000Y-91480000D02*
X95850000Y-91480000D01*
X95850000Y-91480000D02*
X95850000Y-91150000D01*
X102270000Y-89190000D02*
X102270000Y-88860000D01*
X102270000Y-88860000D02*
X95850000Y-88860000D01*
X95850000Y-88860000D02*
X95850000Y-89190000D01*
X121320000Y-108930000D02*
X121320000Y-109260000D01*
X121320000Y-109260000D02*
X114900000Y-109260000D01*
X114900000Y-109260000D02*
X114900000Y-108930000D01*
X121320000Y-106970000D02*
X121320000Y-106640000D01*
X121320000Y-106640000D02*
X114900000Y-106640000D01*
X114900000Y-106640000D02*
X114900000Y-106970000D01*
X140970000Y-51900000D02*
X110970000Y-51900000D01*
X110970000Y-62400000D02*
X140970000Y-62400000D01*
X110970000Y-51900000D02*
G75*
G03X110970000Y-62400000I0J-5250000D01*
G01*
X140970000Y-62400000D02*
G75*
G03X140970000Y-51900000I0J5250000D01*
G01*
X85760000Y-103850000D02*
X85760000Y-104180000D01*
X85760000Y-104180000D02*
X79340000Y-104180000D01*
X79340000Y-104180000D02*
X79340000Y-103850000D01*
X85760000Y-101890000D02*
X85760000Y-101560000D01*
X85760000Y-101560000D02*
X79340000Y-101560000D01*
X79340000Y-101560000D02*
X79340000Y-101890000D01*
X83530000Y-79340000D02*
X83860000Y-79340000D01*
X83860000Y-79340000D02*
X83860000Y-85760000D01*
X83860000Y-85760000D02*
X83530000Y-85760000D01*
X81570000Y-79340000D02*
X81240000Y-79340000D01*
X81240000Y-79340000D02*
X81240000Y-85760000D01*
X81240000Y-85760000D02*
X81570000Y-85760000D01*
X113700000Y-91150000D02*
X113700000Y-91480000D01*
X113700000Y-91480000D02*
X107280000Y-91480000D01*
X107280000Y-91480000D02*
X107280000Y-91150000D01*
X113700000Y-89190000D02*
X113700000Y-88860000D01*
X113700000Y-88860000D02*
X107280000Y-88860000D01*
X107280000Y-88860000D02*
X107280000Y-89190000D01*
X104430000Y-113700000D02*
X104100000Y-113700000D01*
X104100000Y-113700000D02*
X104100000Y-107280000D01*
X104100000Y-107280000D02*
X104430000Y-107280000D01*
X106390000Y-113700000D02*
X106720000Y-113700000D01*
X106720000Y-113700000D02*
X106720000Y-107280000D01*
X106720000Y-107280000D02*
X106390000Y-107280000D01*
X68850000Y-87690000D02*
G75*
G02X70850000Y-87690000I1000000J0D01*
G01*
X70850000Y-87690000D02*
X72500000Y-87690000D01*
X72500000Y-87690000D02*
X72500000Y-77410000D01*
X72500000Y-77410000D02*
X67200000Y-77410000D01*
X67200000Y-77410000D02*
X67200000Y-87690000D01*
X67200000Y-87690000D02*
X68850000Y-87690000D01*
X112665000Y-80070000D02*
G75*
G02X114665000Y-80070000I1000000J0D01*
G01*
X114665000Y-80070000D02*
X116315000Y-80070000D01*
X116315000Y-80070000D02*
X116315000Y-69790000D01*
X116315000Y-69790000D02*
X111015000Y-69790000D01*
X111015000Y-69790000D02*
X111015000Y-80070000D01*
X111015000Y-80070000D02*
X112665000Y-80070000D01*
X78700000Y-107870000D02*
X88940000Y-107870000D01*
X78700000Y-112511000D02*
X88940000Y-112511000D01*
X78700000Y-107870000D02*
X78700000Y-112511000D01*
X88940000Y-107870000D02*
X88940000Y-112511000D01*
X78700000Y-109380000D02*
X88940000Y-109380000D01*
X81970000Y-107870000D02*
X81970000Y-109380000D01*
X85671000Y-107870000D02*
X85671000Y-109380000D01*
X87670000Y-72470000D02*
X77430000Y-72470000D01*
X87670000Y-67829000D02*
X77430000Y-67829000D01*
X87670000Y-72470000D02*
X87670000Y-67829000D01*
X77430000Y-72470000D02*
X77430000Y-67829000D01*
X87670000Y-70960000D02*
X77430000Y-70960000D01*
X84400000Y-72470000D02*
X84400000Y-70960000D01*
X80699000Y-72470000D02*
X80699000Y-70960000D01*
X92670000Y-93900000D02*
X102910000Y-93900000D01*
X92670000Y-98541000D02*
X102910000Y-98541000D01*
X92670000Y-93900000D02*
X92670000Y-98541000D01*
X102910000Y-93900000D02*
X102910000Y-98541000D01*
X92670000Y-95410000D02*
X102910000Y-95410000D01*
X95940000Y-93900000D02*
X95940000Y-95410000D01*
X99641000Y-93900000D02*
X99641000Y-95410000D01*
X116880000Y-104220000D02*
X106640000Y-104220000D01*
X116880000Y-99579000D02*
X106640000Y-99579000D01*
X116880000Y-104220000D02*
X116880000Y-99579000D01*
X106640000Y-104220000D02*
X106640000Y-99579000D01*
X116880000Y-102710000D02*
X106640000Y-102710000D01*
X113610000Y-104220000D02*
X113610000Y-102710000D01*
X109909000Y-104220000D02*
X109909000Y-102710000D01*
X73510000Y-91610000D02*
X73510000Y-90020000D01*
X73510000Y-90020000D02*
X78890000Y-90020000D01*
X78890000Y-90020000D02*
X78890000Y-92860000D01*
X78890000Y-92860000D02*
X74760000Y-92860000D01*
X73260000Y-91710000D02*
X73260000Y-93110000D01*
X73260000Y-93110000D02*
X74660000Y-93110000D01*
X120480000Y-84940000D02*
X122070000Y-84940000D01*
X122070000Y-84940000D02*
X122070000Y-87780000D01*
X122070000Y-87780000D02*
X119230000Y-87780000D01*
X119230000Y-87780000D02*
X119230000Y-86190000D01*
X120380000Y-84690000D02*
X118980000Y-84690000D01*
X118980000Y-84690000D02*
X118980000Y-86090000D01*
X122090000Y-80160000D02*
X120500000Y-80160000D01*
X120500000Y-80160000D02*
X120500000Y-74780000D01*
X120500000Y-74780000D02*
X123340000Y-74780000D01*
X123340000Y-74780000D02*
X123340000Y-78910000D01*
X122190000Y-80410000D02*
X123590000Y-80410000D01*
X123590000Y-80410000D02*
X123590000Y-79010000D01*
D12*
X123117857Y-34757143D02*
X123070238Y-34804762D01*
X122927381Y-34852381D01*
X122832143Y-34852381D01*
X122689285Y-34804762D01*
X122594047Y-34709524D01*
X122546428Y-34614286D01*
X122498809Y-34423810D01*
X122498809Y-34280952D01*
X122546428Y-34090476D01*
X122594047Y-33995238D01*
X122689285Y-33900000D01*
X122832143Y-33852381D01*
X122927381Y-33852381D01*
X123070238Y-33900000D01*
X123117857Y-33947619D01*
X123308333Y-34947619D02*
X124070238Y-34947619D01*
X124165476Y-34185714D02*
X124546428Y-34185714D01*
X124308333Y-34852381D02*
X124308333Y-33995238D01*
X124355952Y-33900000D01*
X124451190Y-33852381D01*
X124546428Y-33852381D01*
X124879762Y-34852381D02*
X124879762Y-34185714D01*
X124879762Y-33852381D02*
X124832143Y-33900000D01*
X124879762Y-33947619D01*
X124927381Y-33900000D01*
X124879762Y-33852381D01*
X124879762Y-33947619D01*
X125498809Y-34852381D02*
X125403571Y-34804762D01*
X125355952Y-34709524D01*
X125355952Y-33852381D01*
X125736905Y-34185714D02*
X126117857Y-34185714D01*
X125879762Y-33852381D02*
X125879762Y-34709524D01*
X125927381Y-34804762D01*
X126022619Y-34852381D01*
X126117857Y-34852381D01*
X126832144Y-34804762D02*
X126736906Y-34852381D01*
X126546429Y-34852381D01*
X126451191Y-34804762D01*
X126403572Y-34709524D01*
X126403572Y-34328571D01*
X126451191Y-34233333D01*
X126546429Y-34185714D01*
X126736906Y-34185714D01*
X126832144Y-34233333D01*
X126879763Y-34328571D01*
X126879763Y-34423810D01*
X126403572Y-34519048D01*
X127308334Y-34852381D02*
X127308334Y-34185714D01*
X127308334Y-34376190D02*
X127355953Y-34280952D01*
X127403572Y-34233333D01*
X127498810Y-34185714D01*
X127594049Y-34185714D01*
X128451192Y-34852381D02*
X127879763Y-34852381D01*
X128165477Y-34852381D02*
X128165477Y-33852381D01*
X128070239Y-33995238D01*
X127975001Y-34090476D01*
X127879763Y-34138095D01*
X76637857Y-47332381D02*
X76161666Y-47332381D01*
X76161666Y-46332381D01*
X76733095Y-47427619D02*
X77495000Y-47427619D01*
X77590238Y-46665714D02*
X77971190Y-46665714D01*
X77733095Y-47332381D02*
X77733095Y-46475238D01*
X77780714Y-46380000D01*
X77875952Y-46332381D01*
X77971190Y-46332381D01*
X78304524Y-47332381D02*
X78304524Y-46665714D01*
X78304524Y-46332381D02*
X78256905Y-46380000D01*
X78304524Y-46427619D01*
X78352143Y-46380000D01*
X78304524Y-46332381D01*
X78304524Y-46427619D01*
X78923571Y-47332381D02*
X78828333Y-47284762D01*
X78780714Y-47189524D01*
X78780714Y-46332381D01*
X79161667Y-46665714D02*
X79542619Y-46665714D01*
X79304524Y-46332381D02*
X79304524Y-47189524D01*
X79352143Y-47284762D01*
X79447381Y-47332381D01*
X79542619Y-47332381D01*
X80256906Y-47284762D02*
X80161668Y-47332381D01*
X79971191Y-47332381D01*
X79875953Y-47284762D01*
X79828334Y-47189524D01*
X79828334Y-46808571D01*
X79875953Y-46713333D01*
X79971191Y-46665714D01*
X80161668Y-46665714D01*
X80256906Y-46713333D01*
X80304525Y-46808571D01*
X80304525Y-46903810D01*
X79828334Y-46999048D01*
X80733096Y-47332381D02*
X80733096Y-46665714D01*
X80733096Y-46856190D02*
X80780715Y-46760952D01*
X80828334Y-46713333D01*
X80923572Y-46665714D01*
X81018811Y-46665714D01*
X81875954Y-47332381D02*
X81304525Y-47332381D01*
X81590239Y-47332381D02*
X81590239Y-46332381D01*
X81495001Y-46475238D01*
X81399763Y-46570476D01*
X81304525Y-46618095D01*
X56353334Y-76787143D02*
X56305715Y-76834762D01*
X56162858Y-76882381D01*
X56067620Y-76882381D01*
X55924762Y-76834762D01*
X55829524Y-76739524D01*
X55781905Y-76644286D01*
X55734286Y-76453810D01*
X55734286Y-76310952D01*
X55781905Y-76120476D01*
X55829524Y-76025238D01*
X55924762Y-75930000D01*
X56067620Y-75882381D01*
X56162858Y-75882381D01*
X56305715Y-75930000D01*
X56353334Y-75977619D01*
X57305715Y-76882381D02*
X56734286Y-76882381D01*
X57020000Y-76882381D02*
X57020000Y-75882381D01*
X56924762Y-76025238D01*
X56829524Y-76120476D01*
X56734286Y-76168095D01*
X96993334Y-75517143D02*
X96945715Y-75564762D01*
X96802858Y-75612381D01*
X96707620Y-75612381D01*
X96564762Y-75564762D01*
X96469524Y-75469524D01*
X96421905Y-75374286D01*
X96374286Y-75183810D01*
X96374286Y-75040952D01*
X96421905Y-74850476D01*
X96469524Y-74755238D01*
X96564762Y-74660000D01*
X96707620Y-74612381D01*
X96802858Y-74612381D01*
X96945715Y-74660000D01*
X96993334Y-74707619D01*
X97374286Y-74707619D02*
X97421905Y-74660000D01*
X97517143Y-74612381D01*
X97755239Y-74612381D01*
X97850477Y-74660000D01*
X97898096Y-74707619D01*
X97945715Y-74802857D01*
X97945715Y-74898095D01*
X97898096Y-75040952D01*
X97326667Y-75612381D01*
X97945715Y-75612381D01*
X98263334Y-114887143D02*
X98215715Y-114934762D01*
X98072858Y-114982381D01*
X97977620Y-114982381D01*
X97834762Y-114934762D01*
X97739524Y-114839524D01*
X97691905Y-114744286D01*
X97644286Y-114553810D01*
X97644286Y-114410952D01*
X97691905Y-114220476D01*
X97739524Y-114125238D01*
X97834762Y-114030000D01*
X97977620Y-113982381D01*
X98072858Y-113982381D01*
X98215715Y-114030000D01*
X98263334Y-114077619D01*
X98596667Y-113982381D02*
X99215715Y-113982381D01*
X98882381Y-114363333D01*
X99025239Y-114363333D01*
X99120477Y-114410952D01*
X99168096Y-114458571D01*
X99215715Y-114553810D01*
X99215715Y-114791905D01*
X99168096Y-114887143D01*
X99120477Y-114934762D01*
X99025239Y-114982381D01*
X98739524Y-114982381D01*
X98644286Y-114934762D01*
X98596667Y-114887143D01*
X58721746Y-83288095D02*
X57721746Y-83288095D01*
X57721746Y-83050000D01*
X57769365Y-82907142D01*
X57864603Y-82811904D01*
X57959841Y-82764285D01*
X58150317Y-82716666D01*
X58293175Y-82716666D01*
X58483651Y-82764285D01*
X58578889Y-82811904D01*
X58674127Y-82907142D01*
X58721746Y-83050000D01*
X58721746Y-83288095D01*
X57721746Y-81811904D02*
X57721746Y-82288095D01*
X58197936Y-82335714D01*
X58150317Y-82288095D01*
X58102698Y-82192857D01*
X58102698Y-81954761D01*
X58150317Y-81859523D01*
X58197936Y-81811904D01*
X58293175Y-81764285D01*
X58531270Y-81764285D01*
X58626508Y-81811904D01*
X58674127Y-81859523D01*
X58721746Y-81954761D01*
X58721746Y-82192857D01*
X58674127Y-82288095D01*
X58626508Y-82335714D01*
X101901746Y-76938095D02*
X100901746Y-76938095D01*
X100901746Y-76700000D01*
X100949365Y-76557142D01*
X101044603Y-76461904D01*
X101139841Y-76414285D01*
X101330317Y-76366666D01*
X101473175Y-76366666D01*
X101663651Y-76414285D01*
X101758889Y-76461904D01*
X101854127Y-76557142D01*
X101901746Y-76700000D01*
X101901746Y-76938095D01*
X100901746Y-75509523D02*
X100901746Y-75700000D01*
X100949365Y-75795238D01*
X100996984Y-75842857D01*
X101139841Y-75938095D01*
X101330317Y-75985714D01*
X101711270Y-75985714D01*
X101806508Y-75938095D01*
X101854127Y-75890476D01*
X101901746Y-75795238D01*
X101901746Y-75604761D01*
X101854127Y-75509523D01*
X101806508Y-75461904D01*
X101711270Y-75414285D01*
X101473175Y-75414285D01*
X101377936Y-75461904D01*
X101330317Y-75509523D01*
X101282698Y-75604761D01*
X101282698Y-75795238D01*
X101330317Y-75890476D01*
X101377936Y-75938095D01*
X101473175Y-75985714D01*
X97201667Y-115132381D02*
X97201667Y-115846667D01*
X97154047Y-115989524D01*
X97058809Y-116084762D01*
X96915952Y-116132381D01*
X96820714Y-116132381D01*
X97630238Y-115227619D02*
X97677857Y-115180000D01*
X97773095Y-115132381D01*
X98011191Y-115132381D01*
X98106429Y-115180000D01*
X98154048Y-115227619D01*
X98201667Y-115322857D01*
X98201667Y-115418095D01*
X98154048Y-115560952D01*
X97582619Y-116132381D01*
X98201667Y-116132381D01*
X79931667Y-62842381D02*
X79931667Y-63556667D01*
X79884047Y-63699524D01*
X79788809Y-63794762D01*
X79645952Y-63842381D01*
X79550714Y-63842381D01*
X80312619Y-62842381D02*
X80931667Y-62842381D01*
X80598333Y-63223333D01*
X80741191Y-63223333D01*
X80836429Y-63270952D01*
X80884048Y-63318571D01*
X80931667Y-63413810D01*
X80931667Y-63651905D01*
X80884048Y-63747143D01*
X80836429Y-63794762D01*
X80741191Y-63842381D01*
X80455476Y-63842381D01*
X80360238Y-63794762D01*
X80312619Y-63747143D01*
X74763334Y-99282381D02*
X74430000Y-98806190D01*
X74191905Y-99282381D02*
X74191905Y-98282381D01*
X74572858Y-98282381D01*
X74668096Y-98330000D01*
X74715715Y-98377619D01*
X74763334Y-98472857D01*
X74763334Y-98615714D01*
X74715715Y-98710952D01*
X74668096Y-98758571D01*
X74572858Y-98806190D01*
X74191905Y-98806190D01*
X75715715Y-99282381D02*
X75144286Y-99282381D01*
X75430000Y-99282381D02*
X75430000Y-98282381D01*
X75334762Y-98425238D01*
X75239524Y-98520476D01*
X75144286Y-98568095D01*
X76882381Y-82716666D02*
X76406190Y-83050000D01*
X76882381Y-83288095D02*
X75882381Y-83288095D01*
X75882381Y-82907142D01*
X75930000Y-82811904D01*
X75977619Y-82764285D01*
X76072857Y-82716666D01*
X76215714Y-82716666D01*
X76310952Y-82764285D01*
X76358571Y-82811904D01*
X76406190Y-82907142D01*
X76406190Y-83288095D01*
X75977619Y-82335714D02*
X75930000Y-82288095D01*
X75882381Y-82192857D01*
X75882381Y-81954761D01*
X75930000Y-81859523D01*
X75977619Y-81811904D01*
X76072857Y-81764285D01*
X76168095Y-81764285D01*
X76310952Y-81811904D01*
X76882381Y-82383333D01*
X76882381Y-81764285D01*
X98893334Y-92932381D02*
X98560000Y-92456190D01*
X98321905Y-92932381D02*
X98321905Y-91932381D01*
X98702858Y-91932381D01*
X98798096Y-91980000D01*
X98845715Y-92027619D01*
X98893334Y-92122857D01*
X98893334Y-92265714D01*
X98845715Y-92360952D01*
X98798096Y-92408571D01*
X98702858Y-92456190D01*
X98321905Y-92456190D01*
X99226667Y-91932381D02*
X99845715Y-91932381D01*
X99512381Y-92313333D01*
X99655239Y-92313333D01*
X99750477Y-92360952D01*
X99798096Y-92408571D01*
X99845715Y-92503810D01*
X99845715Y-92741905D01*
X99798096Y-92837143D01*
X99750477Y-92884762D01*
X99655239Y-92932381D01*
X99369524Y-92932381D01*
X99274286Y-92884762D01*
X99226667Y-92837143D01*
X117943334Y-110712381D02*
X117610000Y-110236190D01*
X117371905Y-110712381D02*
X117371905Y-109712381D01*
X117752858Y-109712381D01*
X117848096Y-109760000D01*
X117895715Y-109807619D01*
X117943334Y-109902857D01*
X117943334Y-110045714D01*
X117895715Y-110140952D01*
X117848096Y-110188571D01*
X117752858Y-110236190D01*
X117371905Y-110236190D01*
X118800477Y-110045714D02*
X118800477Y-110712381D01*
X118562381Y-109664762D02*
X118324286Y-110379048D01*
X118943334Y-110379048D01*
X125413572Y-63842381D02*
X125080238Y-63366190D01*
X124842143Y-63842381D02*
X124842143Y-62842381D01*
X125223096Y-62842381D01*
X125318334Y-62890000D01*
X125365953Y-62937619D01*
X125413572Y-63032857D01*
X125413572Y-63175714D01*
X125365953Y-63270952D01*
X125318334Y-63318571D01*
X125223096Y-63366190D01*
X124842143Y-63366190D01*
X126318334Y-63842381D02*
X125842143Y-63842381D01*
X125842143Y-62842381D01*
X127175477Y-63842381D02*
X126604048Y-63842381D01*
X126889762Y-63842381D02*
X126889762Y-62842381D01*
X126794524Y-62985238D01*
X126699286Y-63080476D01*
X126604048Y-63128095D01*
X81145238Y-105632381D02*
X80811904Y-105156190D01*
X80573809Y-105632381D02*
X80573809Y-104632381D01*
X80954762Y-104632381D01*
X81050000Y-104680000D01*
X81097619Y-104727619D01*
X81145238Y-104822857D01*
X81145238Y-104965714D01*
X81097619Y-105060952D01*
X81050000Y-105108571D01*
X80954762Y-105156190D01*
X80573809Y-105156190D01*
X81335714Y-105727619D02*
X82097619Y-105727619D01*
X82764286Y-104965714D02*
X82764286Y-105775238D01*
X82716667Y-105870476D01*
X82669048Y-105918095D01*
X82573809Y-105965714D01*
X82430952Y-105965714D01*
X82335714Y-105918095D01*
X82764286Y-105584762D02*
X82669048Y-105632381D01*
X82478571Y-105632381D01*
X82383333Y-105584762D01*
X82335714Y-105537143D01*
X82288095Y-105441905D01*
X82288095Y-105156190D01*
X82335714Y-105060952D01*
X82383333Y-105013333D01*
X82478571Y-104965714D01*
X82669048Y-104965714D01*
X82764286Y-105013333D01*
X83192857Y-105584762D02*
X83288095Y-105632381D01*
X83478571Y-105632381D01*
X83573810Y-105584762D01*
X83621429Y-105489524D01*
X83621429Y-105441905D01*
X83573810Y-105346667D01*
X83478571Y-105299048D01*
X83335714Y-105299048D01*
X83240476Y-105251429D01*
X83192857Y-105156190D01*
X83192857Y-105108571D01*
X83240476Y-105013333D01*
X83335714Y-104965714D01*
X83478571Y-104965714D01*
X83573810Y-105013333D01*
X84573810Y-105632381D02*
X84002381Y-105632381D01*
X84288095Y-105632381D02*
X84288095Y-104632381D01*
X84192857Y-104775238D01*
X84097619Y-104870476D01*
X84002381Y-104918095D01*
X85312381Y-83954762D02*
X84836190Y-84288096D01*
X85312381Y-84526191D02*
X84312381Y-84526191D01*
X84312381Y-84145238D01*
X84360000Y-84050000D01*
X84407619Y-84002381D01*
X84502857Y-83954762D01*
X84645714Y-83954762D01*
X84740952Y-84002381D01*
X84788571Y-84050000D01*
X84836190Y-84145238D01*
X84836190Y-84526191D01*
X85407619Y-83764286D02*
X85407619Y-83002381D01*
X84645714Y-82335714D02*
X85455238Y-82335714D01*
X85550476Y-82383333D01*
X85598095Y-82430952D01*
X85645714Y-82526191D01*
X85645714Y-82669048D01*
X85598095Y-82764286D01*
X85264762Y-82335714D02*
X85312381Y-82430952D01*
X85312381Y-82621429D01*
X85264762Y-82716667D01*
X85217143Y-82764286D01*
X85121905Y-82811905D01*
X84836190Y-82811905D01*
X84740952Y-82764286D01*
X84693333Y-82716667D01*
X84645714Y-82621429D01*
X84645714Y-82430952D01*
X84693333Y-82335714D01*
X85264762Y-81907143D02*
X85312381Y-81811905D01*
X85312381Y-81621429D01*
X85264762Y-81526190D01*
X85169524Y-81478571D01*
X85121905Y-81478571D01*
X85026667Y-81526190D01*
X84979048Y-81621429D01*
X84979048Y-81764286D01*
X84931429Y-81859524D01*
X84836190Y-81907143D01*
X84788571Y-81907143D01*
X84693333Y-81859524D01*
X84645714Y-81764286D01*
X84645714Y-81621429D01*
X84693333Y-81526190D01*
X84407619Y-81097619D02*
X84360000Y-81050000D01*
X84312381Y-80954762D01*
X84312381Y-80716666D01*
X84360000Y-80621428D01*
X84407619Y-80573809D01*
X84502857Y-80526190D01*
X84598095Y-80526190D01*
X84740952Y-80573809D01*
X85312381Y-81145238D01*
X85312381Y-80526190D01*
X109085238Y-92932381D02*
X108751904Y-92456190D01*
X108513809Y-92932381D02*
X108513809Y-91932381D01*
X108894762Y-91932381D01*
X108990000Y-91980000D01*
X109037619Y-92027619D01*
X109085238Y-92122857D01*
X109085238Y-92265714D01*
X109037619Y-92360952D01*
X108990000Y-92408571D01*
X108894762Y-92456190D01*
X108513809Y-92456190D01*
X109275714Y-93027619D02*
X110037619Y-93027619D01*
X110704286Y-92265714D02*
X110704286Y-93075238D01*
X110656667Y-93170476D01*
X110609048Y-93218095D01*
X110513809Y-93265714D01*
X110370952Y-93265714D01*
X110275714Y-93218095D01*
X110704286Y-92884762D02*
X110609048Y-92932381D01*
X110418571Y-92932381D01*
X110323333Y-92884762D01*
X110275714Y-92837143D01*
X110228095Y-92741905D01*
X110228095Y-92456190D01*
X110275714Y-92360952D01*
X110323333Y-92313333D01*
X110418571Y-92265714D01*
X110609048Y-92265714D01*
X110704286Y-92313333D01*
X111132857Y-92884762D02*
X111228095Y-92932381D01*
X111418571Y-92932381D01*
X111513810Y-92884762D01*
X111561429Y-92789524D01*
X111561429Y-92741905D01*
X111513810Y-92646667D01*
X111418571Y-92599048D01*
X111275714Y-92599048D01*
X111180476Y-92551429D01*
X111132857Y-92456190D01*
X111132857Y-92408571D01*
X111180476Y-92313333D01*
X111275714Y-92265714D01*
X111418571Y-92265714D01*
X111513810Y-92313333D01*
X111894762Y-91932381D02*
X112513810Y-91932381D01*
X112180476Y-92313333D01*
X112323334Y-92313333D01*
X112418572Y-92360952D01*
X112466191Y-92408571D01*
X112513810Y-92503810D01*
X112513810Y-92741905D01*
X112466191Y-92837143D01*
X112418572Y-92884762D01*
X112323334Y-92932381D01*
X112037619Y-92932381D01*
X111942381Y-92884762D01*
X111894762Y-92837143D01*
X103552381Y-111894762D02*
X103076190Y-112228096D01*
X103552381Y-112466191D02*
X102552381Y-112466191D01*
X102552381Y-112085238D01*
X102600000Y-111990000D01*
X102647619Y-111942381D01*
X102742857Y-111894762D01*
X102885714Y-111894762D01*
X102980952Y-111942381D01*
X103028571Y-111990000D01*
X103076190Y-112085238D01*
X103076190Y-112466191D01*
X103647619Y-111704286D02*
X103647619Y-110942381D01*
X102885714Y-110275714D02*
X103695238Y-110275714D01*
X103790476Y-110323333D01*
X103838095Y-110370952D01*
X103885714Y-110466191D01*
X103885714Y-110609048D01*
X103838095Y-110704286D01*
X103504762Y-110275714D02*
X103552381Y-110370952D01*
X103552381Y-110561429D01*
X103504762Y-110656667D01*
X103457143Y-110704286D01*
X103361905Y-110751905D01*
X103076190Y-110751905D01*
X102980952Y-110704286D01*
X102933333Y-110656667D01*
X102885714Y-110561429D01*
X102885714Y-110370952D01*
X102933333Y-110275714D01*
X103504762Y-109847143D02*
X103552381Y-109751905D01*
X103552381Y-109561429D01*
X103504762Y-109466190D01*
X103409524Y-109418571D01*
X103361905Y-109418571D01*
X103266667Y-109466190D01*
X103219048Y-109561429D01*
X103219048Y-109704286D01*
X103171429Y-109799524D01*
X103076190Y-109847143D01*
X103028571Y-109847143D01*
X102933333Y-109799524D01*
X102885714Y-109704286D01*
X102885714Y-109561429D01*
X102933333Y-109466190D01*
X102885714Y-108561428D02*
X103552381Y-108561428D01*
X102504762Y-108799524D02*
X103219048Y-109037619D01*
X103219048Y-108418571D01*
X69088095Y-88142381D02*
X69088095Y-88951905D01*
X69135714Y-89047143D01*
X69183333Y-89094762D01*
X69278571Y-89142381D01*
X69469048Y-89142381D01*
X69564286Y-89094762D01*
X69611905Y-89047143D01*
X69659524Y-88951905D01*
X69659524Y-88142381D01*
X70659524Y-89142381D02*
X70088095Y-89142381D01*
X70373809Y-89142381D02*
X70373809Y-88142381D01*
X70278571Y-88285238D01*
X70183333Y-88380476D01*
X70088095Y-88428095D01*
X112903095Y-80522381D02*
X112903095Y-81331905D01*
X112950714Y-81427143D01*
X112998333Y-81474762D01*
X113093571Y-81522381D01*
X113284048Y-81522381D01*
X113379286Y-81474762D01*
X113426905Y-81427143D01*
X113474524Y-81331905D01*
X113474524Y-80522381D01*
X113903095Y-80617619D02*
X113950714Y-80570000D01*
X114045952Y-80522381D01*
X114284048Y-80522381D01*
X114379286Y-80570000D01*
X114426905Y-80617619D01*
X114474524Y-80712857D01*
X114474524Y-80808095D01*
X114426905Y-80950952D01*
X113855476Y-81522381D01*
X114474524Y-81522381D01*
X83724762Y-107417619D02*
X83629524Y-107370000D01*
X83534286Y-107274762D01*
X83391429Y-107131905D01*
X83296190Y-107084286D01*
X83200952Y-107084286D01*
X83248571Y-107322381D02*
X83153333Y-107274762D01*
X83058095Y-107179524D01*
X83010476Y-106989048D01*
X83010476Y-106655714D01*
X83058095Y-106465238D01*
X83153333Y-106370000D01*
X83248571Y-106322381D01*
X83439048Y-106322381D01*
X83534286Y-106370000D01*
X83629524Y-106465238D01*
X83677143Y-106655714D01*
X83677143Y-106989048D01*
X83629524Y-107179524D01*
X83534286Y-107274762D01*
X83439048Y-107322381D01*
X83248571Y-107322381D01*
X84629524Y-107322381D02*
X84058095Y-107322381D01*
X84343809Y-107322381D02*
X84343809Y-106322381D01*
X84248571Y-106465238D01*
X84153333Y-106560476D01*
X84058095Y-106608095D01*
X82454762Y-74017619D02*
X82359524Y-73970000D01*
X82264286Y-73874762D01*
X82121429Y-73731905D01*
X82026190Y-73684286D01*
X81930952Y-73684286D01*
X81978571Y-73922381D02*
X81883333Y-73874762D01*
X81788095Y-73779524D01*
X81740476Y-73589048D01*
X81740476Y-73255714D01*
X81788095Y-73065238D01*
X81883333Y-72970000D01*
X81978571Y-72922381D01*
X82169048Y-72922381D01*
X82264286Y-72970000D01*
X82359524Y-73065238D01*
X82407143Y-73255714D01*
X82407143Y-73589048D01*
X82359524Y-73779524D01*
X82264286Y-73874762D01*
X82169048Y-73922381D01*
X81978571Y-73922381D01*
X82788095Y-73017619D02*
X82835714Y-72970000D01*
X82930952Y-72922381D01*
X83169048Y-72922381D01*
X83264286Y-72970000D01*
X83311905Y-73017619D01*
X83359524Y-73112857D01*
X83359524Y-73208095D01*
X83311905Y-73350952D01*
X82740476Y-73922381D01*
X83359524Y-73922381D01*
X97694762Y-93447619D02*
X97599524Y-93400000D01*
X97504286Y-93304762D01*
X97361429Y-93161905D01*
X97266190Y-93114286D01*
X97170952Y-93114286D01*
X97218571Y-93352381D02*
X97123333Y-93304762D01*
X97028095Y-93209524D01*
X96980476Y-93019048D01*
X96980476Y-92685714D01*
X97028095Y-92495238D01*
X97123333Y-92400000D01*
X97218571Y-92352381D01*
X97409048Y-92352381D01*
X97504286Y-92400000D01*
X97599524Y-92495238D01*
X97647143Y-92685714D01*
X97647143Y-93019048D01*
X97599524Y-93209524D01*
X97504286Y-93304762D01*
X97409048Y-93352381D01*
X97218571Y-93352381D01*
X97980476Y-92352381D02*
X98599524Y-92352381D01*
X98266190Y-92733333D01*
X98409048Y-92733333D01*
X98504286Y-92780952D01*
X98551905Y-92828571D01*
X98599524Y-92923810D01*
X98599524Y-93161905D01*
X98551905Y-93257143D01*
X98504286Y-93304762D01*
X98409048Y-93352381D01*
X98123333Y-93352381D01*
X98028095Y-93304762D01*
X97980476Y-93257143D01*
X111664762Y-105767619D02*
X111569524Y-105720000D01*
X111474286Y-105624762D01*
X111331429Y-105481905D01*
X111236190Y-105434286D01*
X111140952Y-105434286D01*
X111188571Y-105672381D02*
X111093333Y-105624762D01*
X110998095Y-105529524D01*
X110950476Y-105339048D01*
X110950476Y-105005714D01*
X110998095Y-104815238D01*
X111093333Y-104720000D01*
X111188571Y-104672381D01*
X111379048Y-104672381D01*
X111474286Y-104720000D01*
X111569524Y-104815238D01*
X111617143Y-105005714D01*
X111617143Y-105339048D01*
X111569524Y-105529524D01*
X111474286Y-105624762D01*
X111379048Y-105672381D01*
X111188571Y-105672381D01*
X112474286Y-105005714D02*
X112474286Y-105672381D01*
X112236190Y-104624762D02*
X111998095Y-105339048D01*
X112617143Y-105339048D01*
X75009524Y-93162381D02*
X75009524Y-93876667D01*
X74961904Y-94019524D01*
X74866666Y-94114762D01*
X74723809Y-94162381D01*
X74628571Y-94162381D01*
X76009524Y-94162381D02*
X75438095Y-94162381D01*
X75723809Y-94162381D02*
X75723809Y-93162381D01*
X75628571Y-93305238D01*
X75533333Y-93400476D01*
X75438095Y-93448095D01*
X76200000Y-94257619D02*
X76961905Y-94257619D01*
X77723810Y-94162381D02*
X77152381Y-94162381D01*
X77438095Y-94162381D02*
X77438095Y-93162381D01*
X77342857Y-93305238D01*
X77247619Y-93400476D01*
X77152381Y-93448095D01*
X117832381Y-87550476D02*
X118546667Y-87550476D01*
X118689524Y-87598096D01*
X118784762Y-87693334D01*
X118832381Y-87836191D01*
X118832381Y-87931429D01*
X118832381Y-86550476D02*
X118832381Y-87121905D01*
X118832381Y-86836191D02*
X117832381Y-86836191D01*
X117975238Y-86931429D01*
X118070476Y-87026667D01*
X118118095Y-87121905D01*
X118927619Y-86360000D02*
X118927619Y-85598095D01*
X117832381Y-85455238D02*
X117832381Y-84836190D01*
X118213333Y-85169524D01*
X118213333Y-85026666D01*
X118260952Y-84931428D01*
X118308571Y-84883809D01*
X118403810Y-84836190D01*
X118641905Y-84836190D01*
X118737143Y-84883809D01*
X118784762Y-84931428D01*
X118832381Y-85026666D01*
X118832381Y-85312381D01*
X118784762Y-85407619D01*
X118737143Y-85455238D01*
X123642381Y-78660476D02*
X124356667Y-78660476D01*
X124499524Y-78708096D01*
X124594762Y-78803334D01*
X124642381Y-78946191D01*
X124642381Y-79041429D01*
X124737619Y-78422381D02*
X124737619Y-77660476D01*
X124642381Y-76898571D02*
X124642381Y-77470000D01*
X124642381Y-77184286D02*
X123642381Y-77184286D01*
X123785238Y-77279524D01*
X123880476Y-77374762D01*
X123928095Y-77470000D01*
X123737619Y-76517619D02*
X123690000Y-76470000D01*
X123642381Y-76374762D01*
X123642381Y-76136666D01*
X123690000Y-76041428D01*
X123737619Y-75993809D01*
X123832857Y-75946190D01*
X123928095Y-75946190D01*
X124070952Y-75993809D01*
X124642381Y-76565238D01*
X124642381Y-75946190D01*
M02*
