G04 #@! TF.FileFunction,Soldermask,Top*
%FSLAX46Y46*%
G04 Gerber Fmt 4.6, Leading zero omitted, Abs format (unit mm)*
G04 Created by KiCad (PCBNEW 4.0.6) date 06/24/19 22:23:21*
%MOMM*%
%LPD*%
G01*
G04 APERTURE LIST*
%ADD10C,0.100000*%
%ADD11C,10.560000*%
%ADD12R,2.000000X2.000000*%
%ADD13C,2.000000*%
%ADD14R,2.600000X2.600000*%
%ADD15O,2.600000X2.600000*%
%ADD16O,2.000000X2.000000*%
%ADD17R,2.200000X2.200000*%
%ADD18O,2.200000X2.200000*%
%ADD19R,2.400000X2.400000*%
%ADD20C,2.400000*%
G04 APERTURE END LIST*
D10*
D11*
X110490000Y-40640000D03*
X140460000Y-40640000D03*
X93980000Y-40640000D03*
X64010000Y-40640000D03*
D12*
X58420000Y-71120000D03*
D13*
X54620000Y-71120000D03*
D12*
X99060000Y-69850000D03*
D13*
X95260000Y-69850000D03*
D12*
X100330000Y-109220000D03*
D13*
X96530000Y-109220000D03*
D14*
X60960000Y-85090000D03*
D15*
X60960000Y-80010000D03*
D14*
X104140000Y-78740000D03*
D15*
X104140000Y-73660000D03*
D11*
X82550000Y-121920000D03*
X112520000Y-121920000D03*
X95250000Y-57150000D03*
X65280000Y-57150000D03*
D13*
X78740000Y-96520000D03*
D16*
X71120000Y-96520000D03*
D13*
X78740000Y-86360000D03*
D16*
X78740000Y-78740000D03*
D13*
X102870000Y-90170000D03*
D16*
X95250000Y-90170000D03*
D13*
X121920000Y-107950000D03*
D16*
X114300000Y-107950000D03*
D11*
X140970000Y-57150000D03*
X111000000Y-57150000D03*
D13*
X86360000Y-102870000D03*
D16*
X78740000Y-102870000D03*
D13*
X82550000Y-78740000D03*
D16*
X82550000Y-86360000D03*
D13*
X114300000Y-90170000D03*
D16*
X106680000Y-90170000D03*
D13*
X105410000Y-114300000D03*
D16*
X105410000Y-106680000D03*
D12*
X73660000Y-86360000D03*
D16*
X66040000Y-78740000D03*
X73660000Y-83820000D03*
X66040000Y-81280000D03*
X73660000Y-81280000D03*
X66040000Y-83820000D03*
X73660000Y-78740000D03*
X66040000Y-86360000D03*
D12*
X117475000Y-78740000D03*
D16*
X109855000Y-71120000D03*
X117475000Y-76200000D03*
X109855000Y-73660000D03*
X117475000Y-73660000D03*
X109855000Y-76200000D03*
X117475000Y-71120000D03*
X109855000Y-78740000D03*
D17*
X81280000Y-110490000D03*
D18*
X83820000Y-110490000D03*
X86360000Y-110490000D03*
D17*
X85090000Y-69850000D03*
D18*
X82550000Y-69850000D03*
X80010000Y-69850000D03*
D17*
X95250000Y-96520000D03*
D18*
X97790000Y-96520000D03*
X100330000Y-96520000D03*
D17*
X114300000Y-101600000D03*
D18*
X111760000Y-101600000D03*
X109220000Y-101600000D03*
D19*
X74930000Y-91440000D03*
D20*
X77470000Y-91440000D03*
D19*
X120650000Y-86360000D03*
X121920000Y-78740000D03*
D20*
X121920000Y-76200000D03*
M02*
