M48
;DRILL file {KiCad 4.0.6} date 06/24/19 22:20:20
;FORMAT={-:-/ absolute / metric / decimal}
FMAT,2
METRIC,TZ
T1C0.800
T2C0.950
T3C1.000
T4C1.100
T5C6.100
%
G90
G05
M71
T1
X54.62Y-71.12
X58.42Y-71.12
X66.04Y-78.74
X66.04Y-81.28
X66.04Y-83.82
X66.04Y-86.36
X71.12Y-96.52
X73.66Y-78.74
X73.66Y-81.28
X73.66Y-83.82
X73.66Y-86.36
X78.74Y-78.74
X78.74Y-86.36
X78.74Y-96.52
X78.74Y-102.87
X82.55Y-78.74
X82.55Y-86.36
X86.36Y-102.87
X95.25Y-90.17
X95.26Y-69.85
X96.53Y-109.22
X99.06Y-69.85
X100.33Y-109.22
X102.87Y-90.17
X105.41Y-106.68
X105.41Y-114.3
X106.68Y-90.17
X109.855Y-71.12
X109.855Y-73.66
X109.855Y-76.2
X109.855Y-78.74
X114.3Y-90.17
X114.3Y-107.95
X117.475Y-71.12
X117.475Y-73.66
X117.475Y-76.2
X117.475Y-78.74
X121.92Y-107.95
T2
X74.93Y-91.44
X77.47Y-91.44
X120.65Y-86.36
X121.92Y-76.2
X121.92Y-78.74
T3
X80.01Y-69.85
X81.28Y-110.49
X82.55Y-69.85
X83.82Y-110.49
X85.09Y-69.85
X86.36Y-110.49
X95.25Y-96.52
X97.79Y-96.52
X100.33Y-96.52
X109.22Y-101.6
X111.76Y-101.6
X114.3Y-101.6
T4
X60.96Y-80.01
X60.96Y-85.09
X104.14Y-73.66
X104.14Y-78.74
T5
X64.01Y-40.64
X65.28Y-57.15
X82.55Y-121.92
X93.98Y-40.64
X95.25Y-57.15
X110.49Y-40.64
X111.Y-57.15
X112.52Y-121.92
X140.46Y-40.64
X140.97Y-57.15
T0
M30
